<svg width="36" height="36" viewBox="0 0 36 36" fill="none" xmlns="http://www.w3.org/2000/svg">
<rect width="36" height="36" rx="18" fill="#D8D9DF"/>
<path d="M20.0958 19.5173C19.318 19.9741 18.4435 20.2501 17.5 20.2501C16.5565 20.2501 15.682 19.9741 14.9043 19.5173C12.1705 19.6966 10 21.9721 10 24.7501V26.0476L10.5213 26.2148C10.6218 26.2463 13.0285 27.0001 17.5 27.0001C21.9715 27.0001 24.3783 26.2463 24.4788 26.2148L25 26.0476V24.7501C25 21.9721 22.8295 19.6966 20.0958 19.5173Z" fill="white"/>
<path d="M17.5 18.75C20.0342 18.75 22 15.9278 22 13.5C22 11.0182 19.9818 9 17.5 9C15.0182 9 13 11.0182 13 13.5C13 15.9278 14.9657 18.75 17.5 18.75Z" fill="white"/>
</svg>
