<svg width="17" height="17" viewBox="0 0 17 17" fill="none" xmlns="http://www.w3.org/2000/svg">
<path d="M10.6257 16.2917H0.708984V13.2366C0.708984 12.3774 1.22253 11.6025 2.01657 11.2731C2.82053 10.9402 4.0169 10.625 5.66732 10.625C7.31773 10.625 8.51411 10.9402 9.31807 11.2738C10.1121 11.6025 10.6257 12.3774 10.6257 13.2366V16.2917Z" stroke="#6E84A3" stroke-width="1.5" stroke-miterlimit="10" stroke-linecap="round" stroke-linejoin="round"/>
<path d="M5.66732 8.49992C7.23212 8.49992 8.50065 7.23139 8.50065 5.66659C8.50065 4.10178 7.23212 2.83325 5.66732 2.83325C4.10251 2.83325 2.83398 4.10178 2.83398 5.66659C2.83398 7.23139 4.10251 8.49992 5.66732 8.49992Z" stroke="#6E84A3" stroke-width="1.5" stroke-miterlimit="10" stroke-linecap="round" stroke-linejoin="round"/>
<path d="M16.293 8.38383C16.293 7.956 16.1053 7.54871 15.7702 7.28308C15.2581 6.8765 14.3698 6.375 13.1055 6.375C11.8411 6.375 10.9528 6.8765 10.4407 7.28308C10.1057 7.54871 9.91797 7.956 9.91797 8.38383V9.20833H16.293V8.38383Z" stroke="#6E84A3" stroke-width="1.5" stroke-miterlimit="10" stroke-linecap="round" stroke-linejoin="round"/>
<path d="M13.1048 4.24992C14.0828 4.24992 14.8757 3.45709 14.8757 2.47909C14.8757 1.50108 14.0828 0.708252 13.1048 0.708252C12.1268 0.708252 11.334 1.50108 11.334 2.47909C11.334 3.45709 12.1268 4.24992 13.1048 4.24992Z" stroke="#6E84A3" stroke-width="1.5" stroke-miterlimit="10" stroke-linecap="round" stroke-linejoin="round"/>
</svg>
