<svg width="17" height="14" viewBox="0 0 17 14" fill="none" xmlns="http://www.w3.org/2000/svg">
<path d="M16.293 2.54199H8.5013C8.31344 2.54199 8.13327 2.61662 8.00043 2.74946C7.8676 2.8823 7.79297 3.06246 7.79297 3.25033C7.79297 3.43819 7.8676 3.61835 8.00043 3.75119C8.13327 3.88403 8.31344 3.95866 8.5013 3.95866H16.293C16.4808 3.95866 16.661 3.88403 16.7938 3.75119C16.9267 3.61835 17.0013 3.43819 17.0013 3.25033C17.0013 3.06246 16.9267 2.8823 16.7938 2.74946C16.661 2.61662 16.4808 2.54199 16.293 2.54199Z" fill="#6E84A3"/>
<path d="M5.66732 0.416992H1.41732C1.02612 0.416992 0.708984 0.734124 0.708984 1.12533V5.37533C0.708984 5.76653 1.02612 6.08366 1.41732 6.08366H5.66732C6.05852 6.08366 6.37565 5.76653 6.37565 5.37533V1.12533C6.37565 0.734124 6.05852 0.416992 5.66732 0.416992Z" fill="#6E84A3"/>
<path d="M16.293 11.042H8.5013C8.31344 11.042 8.13327 11.1166 8.00043 11.2495C7.8676 11.3823 7.79297 11.5625 7.79297 11.7503C7.79297 11.9382 7.8676 12.1184 8.00043 12.2512C8.13327 12.384 8.31344 12.4587 8.5013 12.4587H16.293C16.4808 12.4587 16.661 12.384 16.7938 12.2512C16.9267 12.1184 17.0013 11.9382 17.0013 11.7503C17.0013 11.5625 16.9267 11.3823 16.7938 11.2495C16.661 11.1166 16.4808 11.042 16.293 11.042Z" fill="#6E84A3"/>
<path d="M7.08427 7.91504L2.83427 12.165L1.4176 10.7484L0.416016 11.75L2.33347 13.6674C2.46631 13.8002 2.64644 13.8748 2.83427 13.8748C3.02209 13.8748 3.20223 13.8002 3.33506 13.6674L8.08585 8.91662L7.08427 7.91504Z" fill="#6E84A3"/>
</svg>
