 <svg width="17" height="17" viewBox="0 0 17 17" fill="none" xmlns="http://www.w3.org/2000/svg">
            <path d="M15.625 8.12998C15.6277 9.17214 15.3836 10.2002 14.9125 11.1304C14.3539 12.2451 13.4952 13.1827 12.4326 13.8381C11.3699 14.4936 10.1453 14.841 8.89583 14.8415C7.85094 14.8442 6.82017 14.6007 5.8875 14.1309L1.375 15.6311L2.87917 11.1304C2.40807 10.2002 2.16394 9.17214 2.16667 8.12998C2.16715 6.88382 2.51548 5.6624 3.17265 4.60254C3.82982 3.54267 4.76987 2.68622 5.8875 2.12911C6.82017 1.65925 7.85094 1.41576 8.89583 1.41848H9.29167C10.9418 1.50928 12.5003 2.20393 13.6689 3.36944C14.8375 4.53495 15.534 6.08941 15.625 7.73519V8.12998Z" stroke="white" stroke-width="2" stroke-linecap="round" stroke-linejoin="round"/>
            </svg>