<svg width="215" height="88" viewBox="0 0 215 88" fill="none" xmlns="http://www.w3.org/2000/svg">
<path d="M42.2525 50.1724L48.5051 56.3574V66.6797H36.0377V56.3574L42.2525 50.1724Z" fill="#ffffff"/>
<path d="M33.451 41.4308L27.2235 35.2207H16.8304V47.6033H27.2235L33.451 41.4308Z" fill="#6987c0"/>
<path d="M48.5178 47.5952L48.5052 56.3577L55.8496 63.6563L64.668 54.9021L57.3193 47.6036L48.5178 47.5952Z" fill="#6987c0"/>
<path d="M36.0209 47.5952L36.0377 56.3577L28.689 63.6563L19.8749 54.9021L27.2235 47.6036L36.0209 47.5952Z" fill="#6987c0"/>
<path d="M36.0461 35.1957L27.2235 35.2124L19.8749 27.9138L28.689 19.1597L36.0377 26.4582L36.0461 35.1957Z" fill="#6987c0"/>
<path d="M51.0919 41.4224L57.3194 35.2124H67.7124V47.595H57.3194L51.0919 41.4224Z" fill="#6987c0"/>
<path d="M48.4926 35.1957L57.3194 35.2124L64.668 27.9138L55.8538 19.1597L48.5052 26.4582L48.4926 35.1957Z" fill="#6987c0"/>
<path d="M42.2525 32.6435L48.5051 26.4585V16.1362H36.0377V26.4585L42.2525 32.6435Z" fill="#6987c0"/>
<path d="M87.7637 31.0879C89.6701 31.0879 91.1482 31.5508 92.198 32.4767C93.2478 33.4026 93.7713 34.6885 93.7685 36.3345C93.7685 38.0028 93.245 39.3123 92.198 40.2632C91.151 41.2141 89.6729 41.684 87.7637 41.6729H83.6442V47.591H80.1757V31.0879H87.7637ZM87.2723 38.645C88.3417 38.645 89.099 38.449 89.5441 38.057C89.9706 37.5998 90.2075 36.9995 90.2075 36.3762C90.2075 35.753 89.9706 35.1527 89.5441 34.6955C89.099 34.309 88.3417 34.1158 87.2723 34.1158H83.6442V38.645H87.2723Z" fill="#ffffff"/>
<path d="M100.151 35.4087C101.031 35.399 101.904 35.5547 102.725 35.8674C103.458 36.1423 104.124 36.5688 104.678 37.1186C105.225 37.6838 105.646 38.3575 105.913 39.0955C106.484 40.7427 106.484 42.5323 105.913 44.1795C105.646 44.9175 105.225 45.5912 104.678 46.1563C104.125 46.7078 103.459 47.1345 102.725 47.4075C101.904 47.7174 101.03 47.8703 100.151 47.858C99.2778 47.8708 98.4099 47.7179 97.594 47.4075C96.864 47.132 96.2013 46.7056 95.6498 46.1563C95.0968 45.591 94.6678 44.9178 94.39 44.1795C93.7964 42.5361 93.7964 40.7389 94.39 39.0955C94.6678 38.3571 95.0968 37.684 95.6498 37.1186C96.2024 36.5708 96.8648 36.1445 97.594 35.8674C98.4093 35.5542 99.2773 35.3985 100.151 35.4087ZM100.151 45.1888C100.611 45.2011 101.067 45.1009 101.478 44.8968C101.84 44.7171 102.151 44.4522 102.385 44.1253C102.628 43.7849 102.806 43.4033 102.91 42.9992C103.03 42.5558 103.089 42.0985 103.087 41.6396C103.089 41.1847 103.03 40.7315 102.91 40.2925C102.804 39.8916 102.627 39.513 102.385 39.1747C102.15 38.8491 101.839 38.5844 101.478 38.4032C101.066 38.2025 100.611 38.1038 100.151 38.1154C99.6961 38.1028 99.2447 38.2016 98.837 38.4032C98.4797 38.5888 98.1696 38.8526 97.93 39.1747C97.6828 39.5106 97.5019 39.8898 97.3967 40.2925C97.2768 40.7315 97.2175 41.1847 97.2203 41.6396C97.218 42.0985 97.2773 42.5558 97.3967 42.9992C97.5001 43.405 97.6812 43.7873 97.93 44.1253C98.1684 44.4485 98.4788 44.7125 98.837 44.8968C99.2436 45.1018 99.6955 45.2022 100.151 45.1888Z" fill="#ffffff"/>
<path d="M115.012 39.2036C115.017 39.0224 114.968 38.8438 114.871 38.6902C114.773 38.5366 114.633 38.4149 114.466 38.3403C113.998 38.1234 113.484 38.0232 112.967 38.0484C111.663 38.0484 110.918 38.4807 110.733 39.3454H107.752C107.799 38.7346 107.983 38.1419 108.289 37.6105C108.58 37.1208 108.978 36.7018 109.453 36.3843C109.967 36.0488 110.535 35.8033 111.132 35.6586C111.809 35.4917 112.505 35.4104 113.203 35.4167C113.921 35.4072 114.637 35.4956 115.332 35.6795C115.898 35.8294 116.434 36.0764 116.915 36.4093C117.325 36.7058 117.662 37.0908 117.901 37.5354C118.13 37.9495 118.25 38.4143 118.25 38.8867C118.287 39.4378 118.152 39.9869 117.864 40.459C117.655 40.7746 117.365 41.0294 117.024 41.1972V41.6601C117.469 41.8068 117.859 42.0847 118.141 42.4567C118.483 42.9565 118.647 43.5554 118.607 44.1583C118.61 44.6834 118.477 45.2003 118.221 45.6597C117.956 46.1357 117.588 46.5462 117.141 46.8609C116.626 47.2218 116.05 47.4887 115.441 47.6491C114.712 47.8404 113.96 47.933 113.207 47.9244C111.331 47.9244 109.92 47.5657 108.974 46.8484C108.508 46.5003 108.121 46.0577 107.841 45.5501C107.56 45.0425 107.391 44.4813 107.345 43.9039H110.347C110.407 44.1519 110.527 44.3816 110.697 44.5728C110.867 44.764 111.081 44.911 111.321 45.0008C111.872 45.2017 112.456 45.2993 113.043 45.2886C113.618 45.3135 114.192 45.2109 114.723 44.9883C114.916 44.9103 115.08 44.7752 115.192 44.6013C115.305 44.4274 115.361 44.2232 115.353 44.0165C115.366 43.8397 115.33 43.6627 115.251 43.5041C115.171 43.3456 115.049 43.2113 114.899 43.1157C114.439 42.8982 113.929 42.8033 113.421 42.8404H111.468V40.3464H113.303C114.441 40.3464 115.012 39.9669 115.012 39.2036Z" fill="#ffffff"/>
<path d="M131.813 42.0605H123.251C123.239 42.9069 123.517 43.7322 124.041 44.4002C124.307 44.6844 124.633 44.9067 124.996 45.0509C125.359 45.1951 125.75 45.2577 126.14 45.2343C126.649 45.2608 127.155 45.1514 127.606 44.9173C127.959 44.7105 128.23 44.3896 128.374 44.0081H131.679C131.466 45.1416 130.841 46.1581 129.924 46.865C129 47.5796 127.723 47.9369 126.094 47.9369C125.223 47.9505 124.358 47.7975 123.545 47.4864C122.823 47.2099 122.169 46.7833 121.626 46.2352C121.088 45.6674 120.676 44.994 120.417 44.2584C120.128 43.4254 119.986 42.5493 119.997 41.6684C119.987 40.7958 120.129 39.9281 120.417 39.1035C120.671 38.3591 121.09 37.6808 121.643 37.1183C122.18 36.5733 122.827 36.1469 123.541 35.8671C124.346 35.5693 125.202 35.4278 126.061 35.45C126.886 35.4344 127.707 35.576 128.479 35.8671C129.153 36.124 129.765 36.5211 130.272 37.0318C130.779 37.5426 131.17 38.155 131.419 38.8282C131.69 39.549 131.832 40.3111 131.839 41.0804L131.813 42.0605ZM126.019 37.8898C125.371 37.8474 124.731 38.0484 124.225 38.4529C123.798 38.8466 123.499 39.3576 123.365 39.9209H128.496C128.424 39.3616 128.162 38.8436 127.753 38.4529C127.273 38.0434 126.65 37.8368 126.019 37.8773V37.8898Z" fill="#ffffff"/>
<path d="M142.4 47.6284V42.8906H137.419V47.6284H134.161V35.7505H137.419V40.188H142.4V35.7505H145.658V47.6284H142.4Z" fill="#ffffff"/>
<path d="M147.544 35.7505H158.642V38.453H154.733V47.6284H151.474V38.453H147.544V35.7505Z" fill="#ffffff"/>
<path d="M167.633 46.6108H167.167C166.794 47.0257 166.334 47.3534 165.819 47.57C165.184 47.828 164.501 47.9502 163.816 47.9287C163.186 47.9397 162.56 47.8351 161.968 47.6201C161.463 47.4345 161.001 47.1509 160.608 46.786C160.24 46.4336 159.954 46.0069 159.768 45.5348C159.574 45.0462 159.475 44.5252 159.478 44C159.48 43.5205 159.572 43.0455 159.747 42.5987C159.934 42.1269 160.22 41.7003 160.587 41.3475C161.013 40.924 161.526 40.5956 162.09 40.3841C162.813 40.1291 163.577 40.0075 164.345 40.0254H167.536V39.7251C167.536 38.4739 166.827 37.8775 165.416 37.8775C164.905 37.8439 164.395 37.9599 163.95 38.2112C163.793 38.3169 163.661 38.4559 163.565 38.6182C163.468 38.7804 163.409 38.9619 163.392 39.1496H160.158C160.166 38.6097 160.31 38.0804 160.578 37.6106C160.846 37.1489 161.211 36.7504 161.649 36.4428C162.132 36.1061 162.671 35.8563 163.24 35.7046C163.896 35.5289 164.573 35.4433 165.252 35.4502C165.997 35.4421 166.741 35.5276 167.465 35.7046C168.081 35.8511 168.662 36.1176 169.174 36.4887C169.653 36.8479 170.033 37.3213 170.278 37.865C170.567 38.5074 170.711 39.2051 170.698 39.9086V47.6284H167.633V46.6108ZM164.84 45.3596C165.551 45.3905 166.245 45.1417 166.772 44.6673C167.018 44.437 167.212 44.1571 167.341 43.8465C167.47 43.5358 167.531 43.2014 167.519 42.8656V42.1733H164.958C164.385 42.1417 163.816 42.2734 163.316 42.5528C163.122 42.6776 162.964 42.8516 162.86 43.0569C162.756 43.2621 162.709 43.4912 162.724 43.7206C162.709 43.9541 162.752 44.1878 162.849 44.4009C162.947 44.614 163.096 44.8 163.282 44.9426C163.741 45.2489 164.289 45.3969 164.84 45.3638V45.3596Z" fill="#ffffff"/>
<path d="M172.021 44.5547H172.441C172.775 44.5608 173.107 44.5027 173.419 44.3837C173.709 44.2577 173.95 44.0409 174.104 43.7664C174.306 43.4044 174.44 43.0086 174.499 42.5986C174.595 41.989 174.639 41.3723 174.629 40.7552V35.7505H184.845V47.6284H181.587V38.453H177.627V40.872C177.647 41.9427 177.541 43.012 177.312 44.0584C177.149 44.8134 176.824 45.5246 176.359 46.1437C175.939 46.6698 175.377 47.0662 174.738 47.2864C173.997 47.5326 173.218 47.6497 172.437 47.6326H172.017L172.021 44.5547Z" fill="#ffffff"/>
<path d="M190.59 39.2038H193.529C195.077 39.2038 196.263 39.5694 197.086 40.3006C197.505 40.6911 197.832 41.1679 198.045 41.6975C198.259 42.227 198.353 42.7966 198.321 43.366C198.35 43.9414 198.255 44.5163 198.042 45.0522C197.829 45.5881 197.503 46.0726 197.086 46.4731C196.263 47.2378 195.077 47.6187 193.529 47.6159H187.331V35.7505H190.59V39.2038ZM193.059 44.9133C193.832 44.9133 194.361 44.7715 194.638 44.4963C194.783 44.3424 194.894 44.1612 194.966 43.9634C195.039 43.7655 195.07 43.5553 195.058 43.3452C195.072 43.1336 195.042 42.9215 194.969 42.722C194.897 42.5225 194.784 42.34 194.638 42.1857C194.361 41.9105 193.832 41.7687 193.059 41.7687H190.59V44.9133H193.059Z" fill="#ffffff"/>
<path d="M83.6442 53.2378V66.6672H80.1757V50.1641H92.1602V53.2378H83.6442Z" fill="#ffffff"/>
<path d="M99.0512 66.9678C98.3765 66.9971 97.7048 66.8625 97.0944 66.5757C96.6194 66.3311 96.206 65.9833 95.885 65.5581H95.4189V71.2885H92.1603V54.7896H95.3223V55.8865H95.7884C96.1344 55.4691 96.5632 55.1269 97.0482 54.8813C97.6754 54.58 98.3676 54.4368 99.0638 54.4643C99.8265 54.4533 100.582 54.6144 101.273 54.9356C101.922 55.2436 102.495 55.6892 102.952 56.241C103.426 56.8272 103.783 57.4983 104.002 58.2178C104.248 59.0291 104.369 59.8729 104.359 60.7202C104.368 61.5684 104.243 62.4127 103.989 63.2226C103.767 63.9407 103.41 64.6112 102.94 65.1994C102.488 65.7537 101.913 66.1962 101.26 66.4923C100.569 66.8135 99.8141 66.976 99.0512 66.9678ZM98.2113 57.1919C97.7561 57.1792 97.3047 57.2781 96.897 57.4796C96.5399 57.6661 96.2332 57.935 96.0026 58.2637C95.7613 58.6095 95.5835 58.9949 95.4777 59.4023C95.2425 60.2781 95.2425 61.1998 95.4777 62.0756C95.5827 62.4807 95.7605 62.8636 96.0026 63.2059C96.2354 63.5294 96.5419 63.7937 96.897 63.9774C97.3047 64.179 97.7561 64.2778 98.2113 64.2652C98.6477 64.2736 99.0798 64.1778 99.4711 63.9858C99.8249 63.8113 100.132 63.5554 100.366 63.2393C100.609 62.9023 100.787 62.5233 100.89 62.1215C101.126 61.2146 101.126 60.2633 100.89 59.3564C100.786 58.9523 100.608 58.5707 100.366 58.2303C100.136 57.9061 99.8285 57.6438 99.4711 57.4671C99.0788 57.2784 98.6472 57.1841 98.2113 57.1919Z" fill="#ffffff"/>
<path d="M107.282 71.2885L109.801 65.4496L104.729 54.7979H108.126L111.103 61.1288H111.708L114.454 54.7979H117.733L110.519 71.2968L107.282 71.2885Z" fill="#ffffff"/>
<path d="M127.026 66.6675V57.4921H122.138V66.6675H118.88V54.7896H130.281V66.6675H127.026Z" fill="#ffffff"/>
<path d="M140.896 66.6675V57.4921H136.013V66.6675H132.754V54.7896H144.155V66.6675H140.896Z" fill="#ffffff"/>
</svg>
